<?xml version="1.0" encoding="UTF-8"?>
<svg version="1.1" xmlns="http://www.w3.org/2000/svg" width="1693" height="360">
<path d="M0 0 C14.68319822 -0.09397796 29.36635596 -0.16423836 44.04979515 -0.20724869 C50.86956285 -0.22776142 57.68914231 -0.25566195 64.50878906 -0.30175781 C71.10294493 -0.34630778 77.69697959 -0.36920763 84.29127884 -0.37950897 C86.79399294 -0.38684039 89.29669766 -0.40115494 91.79932785 -0.42292023 C112.66439413 -0.59699379 136.35584093 -0.16601548 152.546875 15.2890625 C161.6894121 26.05366263 164.07232087 38.17734328 163 52 C159.82278342 75.76755036 148.15419466 97.30815859 129 112 C110.04365565 125 110.04365565 125 101 125 C101 125.66 101 126.32 101 127 C101.74121094 127.10183594 102.48242188 127.20367187 103.24609375 127.30859375 C108.44491331 128.6138293 112.32741797 132.58186821 115.33203125 136.92578125 C120.28258806 146.17794548 120.76092318 157.15349794 121.98046875 167.39453125 C122.15918283 168.87426451 122.33808523 170.35397503 122.51716614 171.83366394 C122.88915814 174.91698313 123.25761999 178.00069975 123.6237793 181.0847168 C124.09318843 185.03437617 124.5734455 188.9826331 125.0565443 192.93063831 C125.4279005 195.97806989 125.79256146 199.02627483 126.15529823 202.07474327 C126.32963647 203.53145596 126.50628113 204.98789458 126.6852932 206.4440403 C126.93411865 208.47471218 127.17366307 210.50627498 127.41088867 212.53833008 C127.54919601 213.69254959 127.68750336 214.8467691 127.83000183 216.03596497 C127.98219339 218.68952957 127.83900117 220.50536603 127 223 C119.89755001 223.02526787 112.79511152 223.04283201 105.69262695 223.05493164 C103.27432828 223.05997349 100.85603267 223.06680678 98.43774414 223.07543945 C94.97020717 223.08751157 91.50271034 223.09322963 88.03515625 223.09765625 C86.94662857 223.10281754 85.85810089 223.10797882 84.73658752 223.11329651 C83.23514442 223.11340981 83.23514442 223.11340981 81.70336914 223.11352539 C80.81734512 223.115746 79.93132111 223.11796661 79.01844788 223.12025452 C77 223 77 223 76 222 C75.65764134 219.67700722 75.37335516 217.37040213 75.1237793 215.03686523 C75.04227631 214.30829819 74.96077332 213.57973114 74.87680054 212.8290863 C74.69937585 211.2408857 74.52378069 209.65247993 74.34976768 208.0639019 C74.07270127 205.54479676 73.78848477 203.02660003 73.50190735 200.50856018 C72.68717986 193.34672463 71.87785732 186.18435886 71.09204102 179.01928711 C70.61121709 174.63994224 70.1154612 170.2625027 69.61020851 165.88591194 C69.42090477 164.22129115 69.23712504 162.55603204 69.05911827 160.89016533 C68.11288401 148.73314713 68.11288401 148.73314713 63 138 C57.24026168 134.00642108 51.20304456 133.40075656 44.37109375 133.390625 C43.49598648 133.37408875 42.62087921 133.35755249 41.71925354 133.34051514 C38.95859494 133.29241751 36.19848551 133.27075022 33.4375 133.25 C31.55140522 133.22180822 29.66533561 133.19187636 27.77929688 133.16015625 C23.18624323 133.08666945 18.59348763 133.0368623 14 133 C11.02637453 142.33511599 8.40364907 151.73255468 5.90372658 161.20305443 C5.25443666 163.66264901 4.6019214 166.12136927 3.94865417 168.57991028 C2.56709378 173.78168868 1.18961876 178.98454427 -0.1875 184.1875 C-1.79512996 190.25987276 -3.40444633 196.33179144 -5.01723671 202.40279579 C-5.6599799 204.82535799 -6.30004839 207.24861651 -6.93998718 209.67192078 C-7.33120575 211.1461408 -7.72254139 212.62032976 -8.11401367 214.09448242 C-8.29114899 214.76817368 -8.4682843 215.44186493 -8.65078735 216.13597107 C-9.28962657 218.53350748 -9.887097 220.77419399 -11 223 C-26.84 223 -42.68 223 -59 223 C-57.72282743 216.61413715 -56.39899935 210.3765386 -54.72290039 204.10424805 C-54.50208801 203.26813114 -54.28127563 202.43201424 -54.05377197 201.57056046 C-53.32131221 198.80016629 -52.58451952 196.03094464 -51.84765625 193.26171875 C-51.31839981 191.2639438 -50.7893892 189.2661037 -50.26060486 187.26820374 C-48.82970868 181.86533226 -47.39486249 176.46351719 -45.95910645 171.06193542 C-44.75927671 166.54629987 -43.56156081 162.03010469 -42.36377907 157.51392555 C-33.57053957 124.36192641 -24.73985023 91.21984754 -15.88999557 58.08292007 C-15.00179701 54.75672956 -14.11403756 51.43042208 -13.22634888 48.10409546 C-11.82922535 42.86956644 -10.43038599 37.63549884 -9.03018379 32.40179253 C-8.51811315 30.48695671 -8.00653452 28.57198924 -7.49549675 26.65687752 C-6.79533048 24.03355456 -6.09322702 21.41075742 -5.390625 18.78808594 C-5.19129899 18.03963252 -4.99197298 17.2911791 -4.78660679 16.52004528 C-3.29913218 10.97999803 -1.67139564 5.48718076 0 0 Z M38 37 C35.65119039 43.80015785 33.68773504 50.64004909 31.86328125 57.59765625 C31.57897751 58.67252792 31.29467377 59.7473996 31.00175476 60.85484314 C30.10262635 64.25668671 29.2075011 67.6595685 28.3125 71.0625 C27.70013494 73.38223147 27.08750737 75.70189366 26.47460938 78.02148438 C24.98003615 83.68019192 23.48873994 89.33975516 22 95 C29.32825719 95.05106598 36.65646782 95.08588607 43.98486328 95.10986328 C46.4734875 95.11986813 48.96210012 95.13347622 51.45068359 95.15087891 C55.04527667 95.17537112 58.63971317 95.18653864 62.234375 95.1953125 C63.33174988 95.20563507 64.42912476 95.21595764 65.55975342 95.22659302 C80.44124845 95.22871341 94.98414363 92.9090197 106.09375 82.2421875 C112.94078567 74.1885021 115.55672952 64.27826734 115.296875 53.87109375 C114.86568794 49.70106095 114.03729998 46.95051998 111 44 C97.35722008 34.20652651 78.02741647 36.75684989 62.1875 36.875 C59.83789443 36.88504867 57.48828472 36.89417118 55.13867188 36.90234375 C49.42568951 36.92421039 43.71286449 36.95753877 38 37 Z " fill="#FFFFFF" transform="translate(288,69)"/>
<path d="M0 0 C16.04440083 -0.53960989 29.2226784 4.08807099 41.171875 14.7578125 C52.95357196 27.16980601 55.39642106 44.25793781 55.12890625 60.64453125 C54.21034377 87.17013612 42.77050534 113.94604117 25.921875 134.1953125 C25.31214844 134.96746094 24.70242188 135.73960937 24.07421875 136.53515625 C10.09732276 153.42019621 -9.73464454 163.57682707 -31.203125 166.9453125 C-32.481875 167.0278125 -33.760625 167.1103125 -35.078125 167.1953125 C-36.46644531 167.29005859 -36.46644531 167.29005859 -37.8828125 167.38671875 C-50.52545479 167.86584089 -64.0199437 165.28639561 -74.078125 157.1953125 C-78.5534931 152.94116032 -81.36007118 148.73039556 -84.078125 143.1953125 C-84.36405014 144.26606522 -84.64997528 145.33681793 -84.94456482 146.4400177 C-87.63634459 156.51990237 -90.32909308 166.59952781 -93.02279568 176.67889881 C-94.40769494 181.86107867 -95.79225009 187.04334997 -97.17602539 192.22583008 C-98.51089826 197.22511169 -99.84666644 202.22415329 -101.1830616 207.22302818 C-101.69332993 209.13235603 -102.20327296 211.04177084 -102.71288872 212.95127296 C-103.42549442 215.62114642 -104.13924527 218.29071123 -104.85327148 220.96020508 C-105.06474319 221.75358276 -105.2762149 222.54696045 -105.49409485 223.36437988 C-106.28997145 226.33611722 -107.10499066 229.27590948 -108.078125 232.1953125 C-123.918125 232.1953125 -139.758125 232.1953125 -156.078125 232.1953125 C-151.44888521 212.52104339 -151.44888521 212.52104339 -149.08624268 203.59671021 C-148.91255409 202.93957157 -148.73886551 202.28243294 -148.55991364 201.60538101 C-148.29049076 200.58642054 -148.29049076 200.58642054 -148.015625 199.546875 C-147.62782402 198.07368279 -147.24019517 196.60044526 -146.85272217 195.12716675 C-145.81387987 191.17986301 -144.77208559 187.23334432 -143.72953796 183.28701782 C-143.07069752 180.79218685 -142.41271198 178.29713193 -141.75500488 175.80200195 C-133.12843772 143.07637587 -124.41768401 110.37327798 -115.68011475 77.67713928 C-112.87217286 67.16970299 -110.06756698 56.66138158 -107.265625 46.15234375 C-107.07468513 45.43620281 -106.88374527 44.72006187 -106.68701935 43.9822197 C-105.75748139 40.4958099 -104.82800315 37.00938418 -103.89855957 33.52294922 C-102.22439096 27.2430704 -100.54966175 20.96334108 -98.875 14.68359375 C-97.95203125 11.22246094 -97.0290625 7.76132813 -96.078125 4.1953125 C-80.568125 4.1953125 -65.058125 4.1953125 -49.078125 4.1953125 C-52.453125 17.6953125 -52.453125 17.6953125 -53.765625 22.4453125 C-54.01699219 23.35796875 -54.26835938 24.270625 -54.52734375 25.2109375 C-54.70910156 25.86578125 -54.89085937 26.520625 -55.078125 27.1953125 C-54.07845703 26.12603516 -54.07845703 26.12603516 -53.05859375 25.03515625 C-38.65533734 9.94024787 -20.91765439 1.32726233 0 0 Z M-54.41796875 51.85546875 C-67.58489825 68.48392048 -73.60703175 89.12572086 -72.078125 110.1953125 C-71.19348016 113.55971309 -69.94779186 116.27395804 -68.078125 119.1953125 C-67.500625 120.1234375 -66.923125 121.0515625 -66.328125 122.0078125 C-59.6561522 128.49445272 -51.37020185 129.57193143 -42.40234375 129.47265625 C-29.06667726 128.36004483 -18.8154685 122.14611064 -10.27734375 112.1328125 C1.68058495 96.16058802 7.37541998 76.07965243 4.921875 56.1953125 C3.20012292 48.60311849 -0.18500056 43.85403163 -6.640625 39.4453125 C-22.63509424 31.24302058 -43.41053768 39.34117733 -54.41796875 51.85546875 Z " fill="#FFFFFF" transform="translate(1236.078125,127.8046875)"/>
<path d="M0 0 C4.24972553 3.76265097 6.95174799 9.04219114 9.8125 13.875 C9.95872803 13.30467041 10.10495605 12.73434082 10.25561523 12.14672852 C10.91684115 9.57605211 11.58334771 7.00677426 12.25 4.4375 C12.48009766 3.53966797 12.71019531 2.64183594 12.94726562 1.71679688 C13.16962891 0.86279297 13.39199219 0.00878906 13.62109375 -0.87109375 C13.82532959 -1.66185303 14.02956543 -2.4526123 14.23999023 -3.26733398 C14.8125 -5.125 14.8125 -5.125 15.8125 -6.125 C17.28604348 -6.21804018 18.76400591 -6.24246265 20.24047852 -6.23852539 C21.18137833 -6.23844986 22.12227814 -6.23837433 23.09169006 -6.23829651 C24.11459641 -6.23313522 25.13750275 -6.22797394 26.19140625 -6.22265625 C27.23320541 -6.2212413 28.27500458 -6.21982635 29.34837341 -6.21836853 C32.69061094 -6.2127508 36.03278257 -6.2001953 39.375 -6.1875 C41.63476466 -6.18248728 43.89453037 -6.17792398 46.15429688 -6.17382812 C51.70705391 -6.16277561 57.25977225 -6.14602024 62.8125 -6.125 C60.01058096 6.11831797 56.91581187 18.26363112 53.6640625 30.39453125 C53.16909771 32.2484591 52.67434705 34.10244413 52.17979431 35.95648193 C50.87104067 40.86021359 49.55914604 45.7630992 48.24638748 50.66576004 C47.16267173 54.71416882 46.08052191 58.7629955 44.99836063 62.81182003 C42.33303537 72.78380815 39.66439893 82.75490649 36.99406528 92.72555447 C35.24843571 99.2443966 33.50610012 105.7641114 31.76590347 112.28440571 C30.26638036 117.90256153 28.76358417 123.51983617 27.25872803 129.13656616 C26.67176566 131.32900985 26.08586073 133.52173691 25.5010376 135.7147522 C24.71355888 138.66618171 23.92189996 141.6164546 23.12890625 144.56640625 C22.90404037 145.41289734 22.6791745 146.25938843 22.44749451 147.13153076 C20.92692464 152.76057536 20.92692464 152.76057536 19.8125 153.875 C18.36960213 153.96795815 16.92220215 153.99246513 15.47631836 153.98852539 C14.5554393 153.98844986 13.63456024 153.98837433 12.68577576 153.98829651 C11.68474319 153.98313522 10.68371063 153.97797394 9.65234375 153.97265625 C8.63274063 153.9712413 7.61313751 153.96982635 6.56263733 153.96836853 C3.29172893 153.96275097 0.02088787 153.9501955 -3.25 153.9375 C-5.46158756 153.93248726 -7.67317618 153.92792396 -9.88476562 153.92382812 C-15.31903357 153.91277584 -20.75326197 153.89602063 -26.1875 153.875 C-25.57521819 148.77342178 -24.82455108 143.88182191 -23.625 138.875 C-23.35558594 137.740625 -23.08617187 136.60625 -22.80859375 135.4375 C-22.60363281 134.591875 -22.39867187 133.74625 -22.1875 132.875 C-22.74695313 133.431875 -23.30640625 133.98875 -23.8828125 134.5625 C-40.19594697 150.08882734 -59.58425427 156.43681211 -81.8984375 156.0859375 C-94.13592874 155.64946159 -106.13232751 151.09146169 -115.0625 142.625 C-128.34161472 128.26334876 -130.01906625 111.39782597 -129.37109375 92.60986328 C-128.8940328 85.50343149 -127.14785742 78.69839689 -125.1875 71.875 C-125.00558105 71.22337891 -124.82366211 70.57175781 -124.63623047 69.90039062 C-116.510841 41.40706776 -98.07962431 14.75420108 -72.125 -0.0625 C-49.18569491 -12.62560274 -22.29548966 -14.86365978 0 0 Z M-62.50390625 41.8515625 C-76.13518132 58.23439425 -81.78528335 78.66420585 -80.44189453 99.66992188 C-79.7846087 105.36724014 -77.56894604 109.51618053 -73.54296875 113.50390625 C-65.52566303 119.85621846 -54.96070678 119.859458 -45.1875 118.875 C-31.56561864 115.91883339 -21.50115584 106.99388316 -14.01953125 95.5625 C-5.32467885 80.89723598 0.601362 60.92105441 -3.52734375 44.0234375 C-5.61690201 37.22309998 -9.01414088 32.72612615 -15.1875 29.125 C-31.90652697 22.15873876 -50.62662796 29.28852911 -62.50390625 41.8515625 Z " fill="#FFFFFF" transform="translate(569.1875,138.125)"/>
<path d="M0 0 C5.78610025 4.43363745 8.96815431 9.19412112 12.22265625 15.703125 C14.20265625 9.103125 16.18265625 2.503125 18.22265625 -4.296875 C33.73265625 -4.296875 49.24265625 -4.296875 65.22265625 -4.296875 C60.62616012 15.23823355 60.62616012 15.23823355 58.46459961 23.36157227 C58.09520767 24.76121468 58.09520767 24.76121468 57.71835327 26.18913269 C56.91870184 29.21654586 56.11571851 32.24306271 55.3125 35.26953125 C54.73907405 37.436235 54.16579973 39.60297889 53.59266663 41.76976013 C52.39310417 46.30271416 51.19191514 50.83523298 49.98950195 55.36743164 C48.48306261 61.04597361 46.98036481 66.72549722 45.47879601 72.40532875 C39.93371292 93.37562122 34.36602673 114.33983856 28.64081001 135.26179314 C28.15985188 137.01963782 27.6799006 138.77775832 27.20100212 140.53616524 C26.54975998 142.92476503 25.89399929 145.31207084 25.23657227 147.69897461 C24.94983863 148.75366975 24.94983863 148.75366975 24.65731239 149.82967186 C23.3375978 154.58818345 23.3375978 154.58818345 22.22265625 155.703125 C20.77975838 155.79608315 19.3323584 155.82059013 17.88647461 155.81665039 C16.96559555 155.81657486 16.04471649 155.81649933 15.09593201 155.81642151 C14.09489944 155.81126022 13.09386688 155.80609894 12.0625 155.80078125 C11.04289688 155.7993663 10.02329376 155.79795135 8.97279358 155.79649353 C5.70188518 155.79087597 2.43104412 155.7783205 -0.83984375 155.765625 C-3.05143131 155.76061226 -5.26301993 155.75604896 -7.47460938 155.75195312 C-12.90887732 155.74090084 -18.34310572 155.72414563 -23.77734375 155.703125 C-23.16506194 150.60154678 -22.41439483 145.70994691 -21.21484375 140.703125 C-20.94542969 139.56875 -20.67601562 138.434375 -20.3984375 137.265625 C-20.19347656 136.42 -19.98851562 135.574375 -19.77734375 134.703125 C-20.33679687 135.26 -20.89625 135.816875 -21.47265625 136.390625 C-37.09231946 151.25692825 -55.98145078 158.14125485 -77.48974609 158.0012207 C-90.44635495 157.66866484 -103.08163051 153.36606376 -112.71484375 144.390625 C-124.39799035 131.46088955 -127.33194663 115.60738174 -127.01953125 98.6328125 C-124.9799214 65.53849788 -109.08843816 34.58236256 -84.74609375 12.40136719 C-62.16051327 -7.08093661 -26.63813424 -17.15235961 0 0 Z M-61.90234375 46.20703125 C-68.75434089 55.32875244 -72.68993191 64.84894273 -75.77734375 75.703125 C-76.02484375 76.55390625 -76.27234375 77.4046875 -76.52734375 78.28125 C-78.85204646 87.77378609 -80.01428859 101.02767767 -75.171875 109.83984375 C-70.6565462 115.87293013 -66.16726683 119.04970734 -58.77734375 120.703125 C-45.55146193 121.88425256 -33.98821651 120.04228136 -23.15234375 111.86328125 C-8.48748426 98.52501267 -0.89528372 78.17124077 0.42578125 58.7109375 C0.5753016 49.51543593 -0.84048284 41.99698269 -6.77734375 34.703125 C-24.17916361 20.46527239 -49.16923234 30.98377506 -61.90234375 46.20703125 Z " fill="#FFFFFF" transform="translate(1429.77734375,136.296875)"/>
<path d="M0 0 C1.64653407 4.07389577 0.29889511 7.68119187 -0.81298828 11.72045898 C-1.1242492 12.89610098 -1.1242492 12.89610098 -1.44179821 14.09549332 C-2.14219607 16.73154882 -2.85631328 19.3636925 -3.5703125 21.99609375 C-4.07565706 23.88720808 -4.58012615 25.77855653 -5.08378601 27.67012024 C-6.46330726 32.84171132 -7.85456623 38.01008203 -9.24768448 43.17802429 C-10.72515661 48.66725185 -12.19165231 54.15940906 -13.65893555 59.65136719 C-15.83201572 67.78160133 -18.0084233 75.91093163 -20.18873882 84.03922844 C-24.29797268 99.3600674 -28.37959527 114.68812787 -32.44921875 130.01953125 C-33.06560167 132.34119456 -33.6819957 134.66285493 -34.29840088 136.98451233 C-34.60301743 138.13184184 -34.90763397 139.27917135 -35.22148132 140.46126842 C-35.5256044 141.60673295 -35.82972748 142.75219748 -36.14306641 143.93237305 C-36.59816338 145.64656291 -36.59816338 145.64656291 -37.06245422 147.39538288 C-46.5076196 182.96799889 -55.99451612 218.52936975 -65.5620079 254.06929016 C-66.24501695 256.60648927 -66.92776576 259.14375832 -67.61050415 261.68103027 C-68.65703695 265.56952525 -69.70470448 269.45771261 -70.75343513 273.34561539 C-71.13171668 274.74828143 -71.50973849 276.15101756 -71.88747978 277.55382919 C-72.39708241 279.44579293 -72.90797627 281.33740874 -73.41894531 283.22900391 C-73.7023175 284.27923737 -73.9856897 285.32947083 -74.27764893 286.41152954 C-74.80160679 288.28907844 -75.38358117 290.15074352 -76 292 C-93.49 292 -110.98 292 -129 292 C-130.50215906 288.99568189 -129.4150927 287.09882304 -128.55419922 283.88354492 C-128.38575721 283.24655481 -128.2173152 282.6095647 -128.04376888 281.95327187 C-127.47086133 279.79380204 -126.88770571 277.6372291 -126.3046875 275.48046875 C-125.88842735 273.91990052 -125.47281082 272.3591605 -125.05778503 270.79826355 C-124.1514718 267.39513034 -123.24063023 263.99325144 -122.32644653 260.59222412 C-120.86295855 255.14699357 -119.41014295 249.6989505 -117.95874023 244.25048828 C-114.95337925 232.9751017 -111.9365002 221.70280962 -108.9185257 210.43079376 C-104.28470614 193.12297179 -99.65429689 175.81424704 -95.03468323 158.50262737 C-93.05531046 151.08675308 -91.0699016 143.67252756 -89.08003902 136.2594614 C-87.83389819 131.6125328 -86.59259293 126.9643225 -85.35256386 122.31575966 C-84.76880406 120.1315243 -84.18297675 117.9478404 -83.5950222 115.76473045 C-82.79110693 112.77864616 -81.99437832 109.79073658 -81.19946289 106.80224609 C-80.95921324 105.9168323 -80.71896358 105.03141851 -80.47143364 104.119174 C-79.93589494 102.09081418 -79.46061381 100.0466754 -79 98 C-79.33 97.67 -79.66 97.34 -80 97 C-94.12431113 105.83194877 -108.08043708 114.91004803 -122.01074219 124.04345703 C-127.39479067 127.56744956 -132.79594109 131.06458432 -138.20703125 134.546875 C-140.84351801 136.24502051 -143.46276816 137.96673834 -146.07421875 139.703125 C-147.05116699 140.34701172 -147.05116699 140.34701172 -148.04785156 141.00390625 C-149.27413662 141.81255728 -150.49641882 142.62732398 -151.71386719 143.44921875 C-153.10411136 144.36101853 -154.54815839 145.18986812 -156 146 C-156.66 145.67 -157.32 145.34 -158 145 C-147.53935038 94.04071807 -147.53935038 94.04071807 -135.95727539 85.81079102 C-132.06421001 83.71174683 -128.13981089 81.90348282 -124.02001953 80.29492188 C-118.75830651 78.03880822 -114.20841025 74.72241263 -109.5 71.5 C-107.58645472 70.24522688 -105.66978151 68.99521085 -103.75 67.75 C-102.80125 67.13125 -101.8525 66.5125 -100.875 65.875 C-92.25 60.25 -92.25 60.25 -89.37573242 58.37548828 C-87.4566114 57.12388053 -85.53750335 55.87225289 -83.6184082 54.62060547 C-78.86439867 51.52004182 -74.11017353 48.41980988 -69.35546875 45.3203125 C-58.14544708 38.01212158 -46.94158677 30.6945906 -35.74267578 23.36938477 C-27.20654391 17.7866852 -18.66458595 12.21296344 -10.11914062 6.64453125 C-9.22517578 6.061875 -8.33121094 5.47921875 -7.41015625 4.87890625 C-6.23658569 4.11429077 -6.23658569 4.11429077 -5.03930664 3.33422852 C-3.35382944 2.23149502 -1.67588533 1.11725689 0 0 Z " fill="#3294FF" transform="translate(252,0)"/>
<path d="M0 0 C16.17 0 32.34 0 49 0 C44.50246448 7.87068716 44.50246448 7.87068716 42.4765625 10.69921875 C42.02023437 11.34052734 41.56390625 11.98183594 41.09375 12.64257812 C40.36671875 13.65481445 40.36671875 13.65481445 39.625 14.6875 C38.55424209 16.19108916 37.48394894 17.69500937 36.4140625 19.19921875 C35.8562207 19.98216309 35.29837891 20.76510742 34.72363281 21.57177734 C31.79385904 25.69918952 28.89825531 29.85042557 26 34 C21.19791466 40.86846506 16.37713254 47.72325371 11.5390625 54.56640625 C7.6766353 60.03306909 3.83564745 65.51452166 0 71 C-4.31906804 77.17683312 -8.64898265 83.34562915 -13 89.5 C-19.10083589 98.13082265 -25.16098551 106.78989108 -31.21777344 115.45166016 C-34.14376733 119.6354306 -37.0719831 123.81764524 -40 128 C-41.16667759 129.66665902 -42.33334425 131.33332569 -43.5 133 C-45.83333333 136.33333333 -48.16666667 139.66666667 -50.5 143 C-51.07758057 143.82516113 -51.65516113 144.65032227 -52.25024414 145.50048828 C-53.41592221 147.16564972 -54.58177484 148.83068898 -55.74780273 150.49560547 C-58.68104494 154.68431303 -61.6111391 158.87515899 -64.53515625 163.0703125 C-70.18994322 171.17694006 -75.87975817 179.25205775 -81.6875 187.25 C-86.13053848 193.36998297 -90.47888764 199.54347654 -94.74438477 205.78833008 C-98.66778799 211.53057692 -102.63911729 217.23846252 -106.625 222.9375 C-107.24173584 223.82099121 -107.85847168 224.70448242 -108.49389648 225.61474609 C-109.06567627 226.43152832 -109.63745605 227.24831055 -110.2265625 228.08984375 C-110.73783691 228.82066162 -111.24911133 229.55147949 -111.77587891 230.30444336 C-113 232 -113 232 -114 233 C-115.50418739 233.09311889 -117.01271356 233.11746028 -118.51977539 233.11352539 C-119.96115623 233.11341209 -119.96115623 233.11341209 -121.43165588 233.11329651 C-122.476436 233.10813522 -123.52121613 233.10297394 -124.59765625 233.09765625 C-126.19364906 233.09553383 -126.19364906 233.09553383 -127.82188416 233.09336853 C-131.23545083 233.08775064 -134.648953 233.07519511 -138.0625 233.0625 C-140.37044176 233.05748731 -142.67838455 233.052924 -144.98632812 233.04882812 C-150.65757426 233.0377754 -156.32878253 233.02101987 -162 233 C-158.00800814 226.58850821 -153.92794214 220.35335412 -149.3125 214.375 C-145.12025847 208.86428958 -141.03643919 203.29520485 -137.0625 197.625 C-133.42056451 192.42915608 -129.75767631 187.2512112 -126.03735352 182.11108398 C-124.9363157 180.58864735 -123.83908961 179.06344617 -122.74584961 177.53540039 C-120.21296244 174.00322663 -117.64807257 170.52644308 -114.921875 167.140625 C-114.44830566 166.53371826 -113.97473633 165.92681152 -113.48681641 165.30151367 C-112.22209595 163.68648968 -110.92856148 162.09414363 -109.6328125 160.50390625 C-105.81322377 152.30732469 -109.77339361 140.65118365 -111.22485352 132.02319336 C-111.45194851 130.65543313 -111.67868372 129.28761312 -111.90509033 127.91973877 C-112.38946245 124.99805246 -112.87633489 122.0767984 -113.36523628 119.15586662 C-114.13805337 114.53862341 -114.90518564 109.92044636 -115.6716156 105.30213928 C-116.88327366 98.00514314 -118.09873153 90.70878593 -119.31581873 83.41269356 C-121.49953674 70.32137041 -123.67748478 57.22908723 -125.85291237 44.13638407 C-126.61631255 39.54289616 -127.38163381 34.94973357 -128.14852726 30.35682762 C-128.62366085 27.50964018 -129.09751474 24.66224078 -129.57106018 21.81478882 C-129.89676818 19.85893131 -130.22411332 17.90334665 -130.55149841 15.94776917 C-130.7435788 14.79134918 -130.93565918 13.6349292 -131.13356018 12.44346619 C-131.30187127 11.43456298 -131.47018236 10.42565977 -131.64359379 9.38618374 C-132 7 -132 7 -132 5 C-115.5 5 -99 5 -82 5 C-78.51637275 29.4909552 -75.33153691 54.00285636 -72.32397461 78.55664062 C-72.10380928 80.34334167 -72.10380928 80.34334167 -71.87919617 82.1661377 C-71.60155728 84.42002098 -71.3259923 86.674161 -71.05281067 88.92858887 C-70.92871323 89.93442017 -70.80461578 90.94025146 -70.67675781 91.9765625 C-70.51617889 93.29261475 -70.51617889 93.29261475 -70.35235596 94.63525391 C-70.02846313 96.80897707 -69.57534992 98.88058859 -69 101 C-62.60585042 92.64728208 -56.38971992 84.21756853 -50.5 75.5 C-46.47743048 69.54721938 -42.35649126 63.71308956 -38 58 C-33.03317798 51.48448104 -28.37527546 44.79544061 -23.79614258 38.00268555 C-21.27814604 34.28038043 -18.73751123 30.60020566 -16.015625 27.0234375 C-15.53810791 26.39381104 -15.06059082 25.76418457 -14.56860352 25.11547852 C-13.30059493 23.46014117 -12.01630061 21.81731222 -10.73046875 20.17578125 C-6.56176236 13.80046346 -3.40654634 6.81309268 0 0 Z " fill="#FFFFFF" transform="translate(1643,127)"/>
<path d="M0 0 C2.49783032 2.40531809 4.75510878 4.85593 6.94921875 7.5390625 C7.46871094 8.17328125 7.98820313 8.8075 8.5234375 9.4609375 C14.2894649 17.56454358 16.52644107 28.72709713 16.94921875 38.5390625 C17.00078125 39.32925781 17.05234375 40.11945313 17.10546875 40.93359375 C18.14938904 69.94587838 4.13456974 98.54348717 -14.80859375 119.671875 C-34.95357369 140.75656246 -62.37053249 150.89564186 -91.17578125 151.7265625 C-109.41771757 151.40081364 -127.63155841 147.96294896 -141.515625 135.2890625 C-149.2827123 127.22473226 -154.48888513 117.67517898 -156.05078125 106.5390625 C-156.16035156 105.80042969 -156.26992188 105.06179687 -156.3828125 104.30078125 C-159.36335778 81.29097168 -152.31391797 58.43349745 -141.05078125 38.5390625 C-140.49648438 37.54519531 -139.9421875 36.55132812 -139.37109375 35.52734375 C-134.86542469 27.97118583 -129.11961703 21.83791247 -123.05078125 15.5390625 C-122.39335938 14.806875 -121.7359375 14.0746875 -121.05859375 13.3203125 C-108.58992307 -0.16511673 -89.64183098 -8.39045041 -72.05078125 -12.4609375 C-71.0865625 -12.68652344 -70.12234375 -12.91210938 -69.12890625 -13.14453125 C-45.73570932 -17.63132167 -19.09296379 -15.40149448 0 0 Z M-84.05078125 30.5390625 C-85.10265625 31.2815625 -86.15453125 32.0240625 -87.23828125 32.7890625 C-101.73131678 46.96003058 -108.58014333 69.22907139 -109.42578125 89.1015625 C-109.26253954 95.7464602 -107.70930531 102.1573648 -103.54296875 107.45703125 C-96.48172397 114.10773854 -88.06134411 115.13158303 -78.671875 114.87890625 C-66.71711356 113.75693835 -56.92809711 109.00721963 -48.8359375 100.1015625 C-36.25961715 83.88028174 -29.38265935 62.00930126 -31.05078125 41.5390625 C-32.45999469 34.85803249 -34.69707782 29.95422377 -40.07421875 25.66015625 C-54.18076004 17.65901524 -71.54595582 21.63964294 -84.05078125 30.5390625 Z " fill="#FFFFFF" transform="translate(950.05078125,142.4609375)"/>
<path d="M0 0 C44.22 0 88.44 0 134 0 C133.1205445 7.03564397 131.77865082 13.28700597 129.875 20.0625 C129.60429688 21.11244141 129.33359375 22.16238281 129.0546875 23.24414062 C127.07947922 30.24995749 124.67237081 34.43844201 119 39 C118.11957031 39.74765625 117.23914063 40.4953125 116.33203125 41.265625 C115.08486328 42.24789062 115.08486328 42.24789062 113.8125 43.25 C109.73082625 46.53320679 105.82981914 49.93236139 102 53.5 C97.41264459 57.76943449 92.66555065 61.75760293 87.78125 65.6875 C84.75980812 68.1997101 81.87558227 70.82400827 79 73.5 C74.41239887 77.76918152 69.66557272 81.75758517 64.78125 85.6875 C61.75980812 88.1997101 58.87558227 90.82400827 56 93.5 C51.42252861 97.75975486 46.68805636 101.74128609 41.8125 105.66015625 C38.07646256 108.76833184 34.51564324 112.04799535 30.97070312 115.37109375 C28.72016204 117.47200591 26.57114669 119.28590221 24 121 C51.06 121.33 78.12 121.66 106 122 C102.7 134.54 99.4 147.08 96 160 C50.13 160 4.26 160 -43 160 C-41.68 154.39 -40.36 148.78 -39 143 C-38.62617187 141.329375 -38.25234375 139.65875 -37.8671875 137.9375 C-35.51794453 128.19179395 -32.34501096 122.98118811 -24 117 C-22.22024567 115.57355986 -20.44956372 114.13573631 -18.6875 112.6875 C-17.31658203 111.57955078 -17.31658203 111.57955078 -15.91796875 110.44921875 C-12.09913664 107.24385364 -8.47695065 103.85142998 -4.83886719 100.44433594 C-0.62606859 96.52121407 3.76395352 92.88103586 8.25390625 89.27734375 C11.26318958 86.7817361 14.13940286 84.16236519 17 81.5 C20.70861688 78.04838064 24.48505895 74.73477852 28.4375 71.5625 C32.62238292 68.19652942 36.58306527 64.66816734 40.5 61 C45.26883313 56.53547055 50.15651955 52.30299476 55.26953125 48.23046875 C58.92346988 45.24563476 62.4492652 42.10689295 66 39 C41.25 38.67 16.5 38.34 -9 38 C-14.8214164 26.3571672 -3.48394233 12.5421924 0 0 Z " fill="#FFFFFF" transform="translate(663,132)"/>
<path d="M0 0 C1.49365173 3.92894021 0.4939784 6.84871559 -0.57275391 10.81958008 C-0.75387348 11.50437974 -0.93499306 12.1891794 -1.1216011 12.89473057 C-1.73083055 15.18886298 -2.35373353 17.4790568 -2.9765625 19.76953125 C-3.41500889 21.40989749 -3.85257968 23.05049797 -4.28933716 24.6913147 C-5.47629514 29.14108941 -6.67493444 33.58764192 -7.87571716 38.03370285 C-9.127229 42.67507105 -10.36846791 47.31918289 -11.61035156 51.96313477 C-13.15576865 57.73965151 -14.70228931 63.51586402 -16.25354004 69.29081726 C-19.64030841 81.90068323 -22.99825758 94.51784493 -26.33037949 107.1422596 C-27.06282739 109.91695703 -27.79595002 112.69147523 -28.52932739 115.46592712 C-28.76690954 116.36474893 -29.00449169 117.26357073 -29.2492733 118.18962955 C-29.72209632 119.97835515 -30.1949267 121.7670788 -30.66776466 123.55580044 C-31.82271722 127.92574049 -32.97646013 132.29599319 -34.12774658 136.66690063 C-35.20819214 140.76799872 -36.29288458 144.86795083 -37.38076401 148.96708298 C-37.77849657 150.4687733 -38.17468586 151.97087334 -38.56921768 153.47340775 C-39.10689216 155.52039261 -39.64993465 157.56587958 -40.19433594 159.61108398 C-40.64773346 161.32738258 -40.64773346 161.32738258 -41.11029053 163.07835388 C-42 166 -42 166 -44 170 C-79.97 170 -115.94 170 -153 170 C-151.83710644 163.6040854 -150.73094238 157.54775268 -149.1081543 151.31298828 C-148.84178665 150.28387077 -148.84178665 150.28387077 -148.57003784 149.23396301 C-147.99299778 147.01143267 -147.40941895 144.79070734 -146.82421875 142.5703125 C-146.62267496 141.80332912 -146.42113117 141.03634575 -146.21348 140.24612045 C-145.14945287 136.19950155 -144.07995467 132.15437396 -143.00610352 128.11035156 C-141.90215833 123.94818814 -140.8184137 119.78103272 -139.73890972 115.61247444 C-138.90009289 112.38889289 -138.04609572 109.16947378 -137.1879673 105.95098495 C-136.78156361 104.41596896 -136.38090304 102.87941996 -135.98624229 101.34134293 C-135.43357504 99.19313858 -134.85950014 97.0517502 -134.2800293 94.91064453 C-133.95963181 93.69361847 -133.63923431 92.47659241 -133.30912781 91.22268677 C-131.21272762 86.06196747 -127.44746732 83.05825818 -122.83984375 80.125 C-122.05673828 79.62162109 -121.27363281 79.11824219 -120.46679688 78.59960938 C-119.63212891 78.07173828 -118.79746094 77.54386719 -117.9375 77 C-116.13400839 75.84391564 -114.330626 74.68766089 -112.52734375 73.53125 C-111.60808105 72.94472656 -110.68881836 72.35820312 -109.74169922 71.75390625 C-105.47869727 69.02679975 -101.24003048 66.26262847 -97 63.5 C-95.33346368 62.41646616 -93.66679663 61.33313337 -92 60.25 C-91.175 59.71375 -90.35 59.1775 -89.5 58.625 C-42 27.75 -42 27.75 -39.49682617 26.12304688 C-37.84060488 25.04643016 -36.18451626 23.96960931 -34.52856445 22.89257812 C-30.20318418 20.07973845 -25.87512702 17.27114135 -21.54296875 14.46875 C-20.64642578 13.88802734 -19.74988281 13.30730469 -18.82617188 12.70898438 C-17.12130103 11.60479341 -15.41562714 10.50184092 -13.70898438 9.40039062 C-9.04951978 6.38043888 -4.49278349 3.26311645 0 0 Z " fill="#FFFFFF" transform="translate(153,122)"/>
<path d="M0 0 C-0.59487048 5.76085097 -1.69326173 11.09469636 -3.28515625 16.65625 C-3.50570175 17.44398804 -3.72624725 18.23172607 -3.95347595 19.04333496 C-4.65111588 21.5304373 -5.35666058 24.01521374 -6.0625 26.5 C-6.54024039 28.1977685 -7.01745894 29.89568394 -7.49414062 31.59375 C-8.65673771 35.7308889 -9.82642382 39.86596276 -11 44 C-12.07088867 43.71632568 -13.14177734 43.43265137 -14.24511719 43.14038086 C-15.67894547 42.76901699 -17.11286994 42.39802441 -18.546875 42.02734375 C-19.60044189 41.74667053 -19.60044189 41.74667053 -20.67529297 41.46032715 C-33.2007965 38.24949305 -46.18939048 39.26219712 -57.75 45.25 C-77.59101505 57.35516803 -81.56762834 78.73774502 -87.046875 99.7109375 C-87.50763697 101.45844038 -87.96893046 103.20580318 -88.4307251 104.95303345 C-89.63112029 109.49866285 -90.82636275 114.04562758 -92.01983643 118.59307861 C-93.94266238 125.91904068 -95.87009363 133.24377541 -97.80399323 140.56682205 C-98.47670271 143.11932604 -99.14507582 145.67293914 -99.81317139 148.22665405 C-100.22129353 149.77533706 -100.62958862 151.32397451 -101.03808594 152.87255859 C-101.22300095 153.58410599 -101.40791595 154.29565338 -101.59843445 155.02876282 C-102.88623843 159.88623843 -102.88623843 159.88623843 -104 161 C-105.47354348 161.09304018 -106.95150591 161.11746265 -108.42797852 161.11352539 C-109.36887833 161.11344986 -110.30977814 161.11337433 -111.27919006 161.11329651 C-112.30209641 161.10813522 -113.32500275 161.10297394 -114.37890625 161.09765625 C-115.941605 161.09553383 -115.941605 161.09553383 -117.53587341 161.09336853 C-120.87811094 161.0877508 -124.22028257 161.0751953 -127.5625 161.0625 C-129.82226466 161.05748728 -132.08203037 161.05292398 -134.34179688 161.04882812 C-139.89455391 161.03777561 -145.44727225 161.02102024 -151 161 C-149.45266314 150.63320143 -146.60226594 140.61392987 -143.86328125 130.515625 C-143.34558875 128.59405411 -142.82827864 126.67238017 -142.31132507 124.75061035 C-140.93419245 119.63582029 -139.55145668 114.52256161 -138.1673584 109.40965271 C-137.0266866 105.19360156 -135.88903249 100.97673874 -134.75142097 96.75986099 C-131.94409966 86.35380812 -129.13096762 75.94933772 -126.31373787 65.54596329 C-124.66345042 59.45173419 -123.0150543 53.35699864 -121.36865234 47.26171875 C-119.56599302 40.58854269 -117.75950699 33.91642098 -115.94857788 27.2454834 C-115.31794007 24.9216004 -114.68823504 22.59746406 -114.05947876 20.27307129 C-113.20973184 17.13423183 -112.35564402 13.99661118 -111.5 10.859375 C-111.25642258 9.95674927 -111.01284515 9.05412354 -110.7618866 8.12414551 C-109.11474969 2.11474969 -109.11474969 2.11474969 -108 1 C-106.55710213 0.90704185 -105.10970215 0.88253487 -103.66381836 0.88647461 C-102.28249977 0.88658791 -102.28249977 0.88658791 -100.87327576 0.88670349 C-99.87224319 0.89186478 -98.87121063 0.89702606 -97.83984375 0.90234375 C-96.82024063 0.9037587 -95.80063751 0.90517365 -94.75013733 0.90663147 C-91.47922893 0.91224903 -88.20838787 0.9248045 -84.9375 0.9375 C-82.72591244 0.94251274 -80.51432382 0.94707604 -78.30273438 0.95117188 C-72.86846643 0.96222416 -67.43423803 0.97897937 -62 1 C-62.59291951 5.9581496 -63.29670651 10.65696403 -64.5625 15.5 C-64.83191406 16.5415625 -65.10132813 17.583125 -65.37890625 18.65625 C-65.58386719 19.4296875 -65.78882813 20.203125 -66 21 C-65.51273438 20.45472656 -65.02546875 19.90945312 -64.5234375 19.34765625 C-52.53403708 6.59529398 -37.10695572 -1.96491408 -19.37109375 -3.01171875 C-12.6635488 -2.97856779 -6.27396063 -2.54349755 0 0 Z " fill="#FFFFFF" transform="translate(1120,131)"/>
</svg>
